<svg width="25" height="25" viewBox="0 0 25 25" fill="none" xmlns="http://www.w3.org/2000/svg">
<path fill-rule="evenodd" clip-rule="evenodd" d="M20.573 12.5001C20.573 12.0686 20.2232 11.7188 19.7917 11.7188H5.20837C4.7769 11.7188 4.42712 12.0686 4.42712 12.5001C4.42712 12.9316 4.7769 13.2813 5.20837 13.2813H19.7917C20.2232 13.2813 20.573 12.9316 20.573 12.5001Z" fill="#6415FF"/>
<path fill-rule="evenodd" clip-rule="evenodd" d="M20.573 7.29175C20.573 6.86028 20.2232 6.5105 19.7917 6.5105H5.20837C4.7769 6.5105 4.42712 6.86028 4.42712 7.29175C4.42712 7.72322 4.7769 8.073 5.20837 8.073H19.7917C20.2232 8.073 20.573 7.72322 20.573 7.29175Z" fill="#6415FF"/>
<path fill-rule="evenodd" clip-rule="evenodd" d="M20.573 17.7084C20.573 17.2769 20.2232 16.9272 19.7917 16.9272H5.20837C4.7769 16.9272 4.42712 17.2769 4.42712 17.7084C4.42712 18.1399 4.7769 18.4897 5.20837 18.4897H19.7917C20.2232 18.4897 20.573 18.1399 20.573 17.7084Z" fill="#6415FF"/>
</svg>
